<svg id="visual" viewBox="0 0 900 600" width="900" height="600" xmlns="http://www.w3.org/2000/svg" xmlns:xlink="http://www.w3.org/1999/xlink" version="1.1"><g stroke-width="1" stroke-linejoin="bevel"><path d="M415 279L300 179L290 331Z" fill="#a93305" stroke="#FFFFFF"></path><path d="M415 279L438 140L300 179Z" fill="#c04608" stroke="#FFFFFF"></path><path d="M290 331L291 415L415 279Z" fill="#c04608" stroke="#FFFFFF"></path><path d="M300 179L119 281L290 331Z" fill="#cb500a" stroke="#FFFFFF"></path><path d="M290 331L153 422L291 415Z" fill="#b53d07" stroke="#FFFFFF"></path><path d="M290 0L153 122L300 179Z" fill="#e1630c" stroke="#FFFFFF"></path><path d="M300 179L153 122L119 281Z" fill="#d6590b" stroke="#FFFFFF"></path><path d="M476 473L566 305L415 279Z" fill="#871500" stroke="#FFFFFF"></path><path d="M415 279L578 159L438 140Z" fill="#922003" stroke="#FFFFFF"></path><path d="M119 281L153 422L290 331Z" fill="#e1630c" stroke="#FFFFFF"></path><path d="M291 415L476 473L415 279Z" fill="#e1630c" stroke="#FFFFFF"></path><path d="M326 600L476 473L291 415Z" fill="#ec6d0e" stroke="#FFFFFF"></path><path d="M438 140L290 0L300 179Z" fill="#a93305" stroke="#FFFFFF"></path><path d="M566 305L578 159L415 279Z" fill="#9e2904" stroke="#FFFFFF"></path><path d="M438 140L457 0L290 0Z" fill="#d6590b" stroke="#FFFFFF"></path><path d="M578 159L457 0L438 140Z" fill="#871500" stroke="#FFFFFF"></path><path d="M290 0L156 0L153 122Z" fill="#c04608" stroke="#FFFFFF"></path><path d="M0 151L0 306L119 281Z" fill="#f7770f" stroke="#FFFFFF"></path><path d="M476 473L566 471L566 305Z" fill="#c04608" stroke="#FFFFFF"></path><path d="M763 125L605 0L578 159Z" fill="#9e2904" stroke="#FFFFFF"></path><path d="M119 281L0 306L153 422Z" fill="#922003" stroke="#FFFFFF"></path><path d="M0 151L119 281L153 122Z" fill="#e1630c" stroke="#FFFFFF"></path><path d="M143 600L291 415L153 422Z" fill="#a93305" stroke="#FFFFFF"></path><path d="M143 600L326 600L291 415Z" fill="#ec6d0e" stroke="#FFFFFF"></path><path d="M476 473L457 600L566 471Z" fill="#d6590b" stroke="#FFFFFF"></path><path d="M0 0L0 151L153 122Z" fill="#871500" stroke="#FFFFFF"></path><path d="M326 600L457 600L476 473Z" fill="#c04608" stroke="#FFFFFF"></path><path d="M741 323L578 159L566 305Z" fill="#cb500a" stroke="#FFFFFF"></path><path d="M578 159L605 0L457 0Z" fill="#9e2904" stroke="#FFFFFF"></path><path d="M0 306L0 443L153 422Z" fill="#922003" stroke="#FFFFFF"></path><path d="M0 443L143 600L153 422Z" fill="#f7770f" stroke="#FFFFFF"></path><path d="M719 454L566 305L566 471Z" fill="#871500" stroke="#FFFFFF"></path><path d="M719 454L741 323L566 305Z" fill="#922003" stroke="#FFFFFF"></path><path d="M156 0L0 0L153 122Z" fill="#b53d07" stroke="#FFFFFF"></path><path d="M614 600L719 454L566 471Z" fill="#c04608" stroke="#FFFFFF"></path><path d="M457 600L614 600L566 471Z" fill="#c04608" stroke="#FFFFFF"></path><path d="M741 323L763 125L578 159Z" fill="#b53d07" stroke="#FFFFFF"></path><path d="M0 443L0 600L143 600Z" fill="#c04608" stroke="#FFFFFF"></path><path d="M900 0L783 0L763 125Z" fill="#d6590b" stroke="#FFFFFF"></path><path d="M763 125L783 0L605 0Z" fill="#b53d07" stroke="#FFFFFF"></path><path d="M900 469L900 288L741 323Z" fill="#ec6d0e" stroke="#FFFFFF"></path><path d="M741 323L900 177L763 125Z" fill="#871500" stroke="#FFFFFF"></path><path d="M614 600L763 600L719 454Z" fill="#d6590b" stroke="#FFFFFF"></path><path d="M900 469L741 323L719 454Z" fill="#d6590b" stroke="#FFFFFF"></path><path d="M900 288L900 177L741 323Z" fill="#a93305" stroke="#FFFFFF"></path><path d="M763 600L900 469L719 454Z" fill="#c04608" stroke="#FFFFFF"></path><path d="M900 177L900 0L763 125Z" fill="#ec6d0e" stroke="#FFFFFF"></path><path d="M763 600L900 600L900 469Z" fill="#d6590b" stroke="#FFFFFF"></path></g></svg>