<svg id="visual" viewBox="0 0 900 600" width="900" height="600" xmlns="http://www.w3.org/2000/svg" xmlns:xlink="http://www.w3.org/1999/xlink" version="1.1"><rect x="0" y="0" width="900" height="600" fill="#F7770F"></rect><path d="M0 372L21.5 370.2C43 368.3 86 364.7 128.8 366.5C171.7 368.3 214.3 375.7 257.2 365.2C300 354.7 343 326.3 385.8 322.5C428.7 318.7 471.3 339.3 514.2 349.5C557 359.7 600 359.3 642.8 347.2C685.7 335 728.3 311 771.2 295.8C814 280.7 857 274.3 878.5 271.2L900 268L900 601L878.5 601C857 601 814 601 771.2 601C728.3 601 685.7 601 642.8 601C600 601 557 601 514.2 601C471.3 601 428.7 601 385.8 601C343 601 300 601 257.2 601C214.3 601 171.7 601 128.8 601C86 601 43 601 21.5 601L0 601Z" fill="#002a54"></path><path d="M0 390L21.5 382C43 374 86 358 128.8 345.8C171.7 333.7 214.3 325.3 257.2 333C300 340.7 343 364.3 385.8 374C428.7 383.7 471.3 379.3 514.2 378.3C557 377.3 600 379.7 642.8 374.7C685.7 369.7 728.3 357.3 771.2 349.7C814 342 857 339 878.5 337.5L900 336L900 601L878.5 601C857 601 814 601 771.2 601C728.3 601 685.7 601 642.8 601C600 601 557 601 514.2 601C471.3 601 428.7 601 385.8 601C343 601 300 601 257.2 601C214.3 601 171.7 601 128.8 601C86 601 43 601 21.5 601L0 601Z" fill="#002446"></path><path d="M0 470L21.5 456.7C43 443.3 86 416.7 128.8 412.3C171.7 408 214.3 426 257.2 435.7C300 445.3 343 446.7 385.8 448.5C428.7 450.3 471.3 452.7 514.2 454.8C557 457 600 459 642.8 456.8C685.7 454.7 728.3 448.3 771.2 433.8C814 419.3 857 396.7 878.5 385.3L900 374L900 601L878.5 601C857 601 814 601 771.2 601C728.3 601 685.7 601 642.8 601C600 601 557 601 514.2 601C471.3 601 428.7 601 385.8 601C343 601 300 601 257.2 601C214.3 601 171.7 601 128.8 601C86 601 43 601 21.5 601L0 601Z" fill="#011e39"></path><path d="M0 482L21.5 478.3C43 474.7 86 467.3 128.8 463.2C171.7 459 214.3 458 257.2 455C300 452 343 447 385.8 454.3C428.7 461.7 471.3 481.3 514.2 481.5C557 481.7 600 462.3 642.8 451.5C685.7 440.7 728.3 438.3 771.2 437C814 435.7 857 435.3 878.5 435.2L900 435L900 601L878.5 601C857 601 814 601 771.2 601C728.3 601 685.7 601 642.8 601C600 601 557 601 514.2 601C471.3 601 428.7 601 385.8 601C343 601 300 601 257.2 601C214.3 601 171.7 601 128.8 601C86 601 43 601 21.5 601L0 601Z" fill="#03182c"></path><path d="M0 541L21.5 538.2C43 535.3 86 529.7 128.8 532C171.7 534.3 214.3 544.7 257.2 539.7C300 534.7 343 514.3 385.8 515.3C428.7 516.3 471.3 538.7 514.2 548.3C557 558 600 555 642.8 544.5C685.7 534 728.3 516 771.2 512.2C814 508.3 857 518.7 878.5 523.8L900 529L900 601L878.5 601C857 601 814 601 771.2 601C728.3 601 685.7 601 642.8 601C600 601 557 601 514.2 601C471.3 601 428.7 601 385.8 601C343 601 300 601 257.2 601C214.3 601 171.7 601 128.8 601C86 601 43 601 21.5 601L0 601Z" fill="#01101f"></path></svg>