<svg id="visual" viewBox="0 0 1200 800" width="1200" height="800" xmlns="http://www.w3.org/2000/svg" xmlns:xlink="http://www.w3.org/1999/xlink" version="1.1"><rect x="0" y="0" width="1200" height="800" fill="#001220"></rect><defs><linearGradient id="grad1_0" x1="33.3%" y1="0%" x2="100%" y2="100%"><stop offset="20%" stop-color="#001220" stop-opacity="1"></stop><stop offset="80%" stop-color="#001220" stop-opacity="1"></stop></linearGradient></defs><defs><linearGradient id="grad2_0" x1="0%" y1="0%" x2="66.7%" y2="100%"><stop offset="20%" stop-color="#001220" stop-opacity="1"></stop><stop offset="80%" stop-color="#001220" stop-opacity="1"></stop></linearGradient></defs><g transform="translate(1200, 0)"><path d="M0 396.6C-16.7 313.8 -33.4 231.1 -73.9 227.3C-114.3 223.5 -178.6 298.8 -226.9 312.3C-275.2 325.8 -307.6 277.6 -320.9 233.1C-334.1 188.7 -328.2 147.9 -337.6 109.7C-347.1 71.5 -371.8 35.7 -396.6 0L0 0Z" fill="#09aafd"></path></g><g transform="translate(0, 800)"><path d="M0 -396.6C34.2 -370.5 68.4 -344.3 105.7 -325.3C143 -306.2 183.5 -294.2 187.5 -258.1C191.5 -222 159 -161.7 194.2 -141.1C229.3 -120.4 332.2 -139.5 377.2 -122.6C422.2 -105.7 409.4 -52.8 396.6 0L0 0Z" fill="#09aafd"></path></g></svg>



