<svg id="visual" viewBox="0 0 1200 800" width="1200" height="800" xmlns="http://www.w3.org/2000/svg" xmlns:xlink="http://www.w3.org/1999/xlink" version="1.1"><rect x="0" y="0" width="1200" height="800" fill="#101419"></rect><defs><linearGradient id="grad1_0" x1="33.3%" y1="0%" x2="100%" y2="100%"><stop offset="20%" stop-color="#101419" stop-opacity="1"></stop><stop offset="80%" stop-color="#101419" stop-opacity="1"></stop></linearGradient></defs><defs><linearGradient id="grad2_0" x1="0%" y1="0%" x2="66.7%" y2="100%"><stop offset="20%" stop-color="#101419" stop-opacity="1"></stop><stop offset="80%" stop-color="#101419" stop-opacity="1"></stop></linearGradient></defs><g transform="translate(1200, 0)"><path d="M0 432.7C-60.5 431.4 -121 430.2 -165.6 399.7C-210.2 369.2 -238.8 309.5 -261.6 261.6C-284.4 213.8 -301.4 177.9 -328.9 136.2C-356.4 94.6 -394.5 47.3 -432.7 0L0 0Z" fill="#f97316"></path></g><g transform="translate(0, 800)"><path d="M0 -432.7C54.2 -407.9 108.5 -383.1 144.7 -349.2C180.8 -315.4 198.9 -272.5 244.7 -244.7C290.4 -216.8 363.8 -203.9 399.7 -165.6C435.7 -127.3 434.2 -63.6 432.7 0L0 0Z" fill="#f97316"></path></g></svg>