<svg xmlns="http://www.w3.org/2000/svg" version="1.1" xmlns:xlink="http://www.w3.org/1999/xlink" xmlns:svgjs="http://svgjs.dev/svgjs" viewBox="0 0 800 800"><defs><linearGradient x1="50%" y1="0%" x2="50%" y2="100%" id="wwwhirl-grad"><stop stop-color="hsl(206, 75%, 49%)" stop-opacity="1" offset="45%"></stop><stop stop-color="hsl(331, 90%, 56%)" stop-opacity="1" offset="100%"></stop></linearGradient></defs><g stroke-width="2" stroke="url(#wwwhirl-grad)" fill="none" stroke-linecap="round"><path d="M37.00000251770027 411.71293917932996C50.75000289917 397.8941887959529 75.50000358581553 336.9266871045161 103.000004348755 345.38293733911996C130.50000511169446 353.83918757372385 141.5000054168703 451.89044029398457 169.00000617980973 452.30294030542865C196.5000069427492 452.71544031687273 207.50000724792503 347.98168741121776 235.00000801086446 347.36293739405164C262.500008773804 346.7441873768855 273.5000090789798 439.63918995409506 301.0000098419193 449.3329402230312C328.50001060485874 459.0266904919673 339.5000109100345 397.60543878794203 367.000011672974 393.8929386849452C394.50001243591345 390.1804385819484 405.5000127410893 429.45043967142595 433.0000135040287 431.5129397286464C460.5000142669682 433.5754397858669 471.50001457214404 399.0491888279964 499.0000153350834 403.7929389596034C526.5000160980228 408.53668909121046 537.5000164031987 463.97669062929646 565.0000171661382 454.28294036036027C592.5000179290777 444.58919009142414 603.5000182342535 359.3254377259303 631.000018997193 357.2629376687098C658.5000197601325 355.2004376114894 669.5000200653083 440.05168996553914 697.0000208282477 444.3829400857021C724.5000215911871 448.71419020586507 749.2500222778326 391.87168862886915 763.0000226593024 378.0529382454921 " transform="rotate(99, 400, 400)"></path><path d="M48.00000244140632 411.35799191830273C61.33333614464971 397.9579915465431 85.3333368104878 338.83798990636194 112.00000421697456 347.0379901338566C138.6666716234613 355.2379903613513 149.33333858605602 450.31799299917986 176.00000599254278 450.71799301027716C202.66667339902952 451.1179930213745 213.33334036162427 349.55799020376963 240.000007768111 348.9579901871237C266.6666751745978 348.35799017047776 277.3333421371925 438.43799266959 304.00000954367925 447.8379929303766C330.66667695016605 457.2379931911632 341.3333439127607 397.677991538775 368.00001131924745 394.0779914388993C394.66667872573424 390.47799133902356 405.33334568832896 428.5579923954867 432.00001309481576 430.5579924509732C458.66668050130244 432.5579925064597 469.3333474638972 399.07799157761553 496.0000148703839 403.67799170523455C522.6666822768707 408.2779918328535 533.3333492394653 462.03799332433084 560.0000166459522 452.63799306354423C586.666684052439 443.2379928027576 597.3333510150337 360.5579905089454 624.0000184215204 358.55799045345896C650.6666858280073 356.5579903979724 661.3333527906019 438.8379926806873 688.0000201970887 443.037992797209C714.6666876035754 447.23799291373064 738.6666882694134 392.1179913845225 752.0000219726569 378.7179910127629 " transform="rotate(96, 400, 400)"></path><path d="M59.00000236511238 411.0030484719727C71.9166693901294 398.0217981118306 95.16667003516005 340.74929652290507 121.00000408519412 348.69304674329055C146.83333813522813 356.63679696367603 157.1666717552418 448.7455495190725 183.0000058052758 449.133049529823C208.83333985530987 449.5205495405735 219.1666734753235 351.13429681101877 245.00000752535757 350.553046794893C270.8333415753916 349.97179677876727 281.1666751954052 437.2367991997823 307.0000092454393 446.3430494524193C332.83334329547336 455.44929970505626 343.16667691548696 397.7505481043052 369.00001096552097 394.26304800755065C394.83334501555504 390.77554791079604 405.1666786355687 427.66554893424467 431.0000126856027 429.6030489879972C456.8333467356368 431.5405490417498 467.16668035565044 399.106798141932 493.0000144056845 403.5630482655629C518.8333484557185 408.01929838919375 529.1666820757321 460.09929983406244 555.0000161257661 450.9930495814254C580.8333501758003 441.8867993287884 591.1666837958139 361.7905471066578 617.000017845848 359.85304705290525C642.8333518958821 357.91554699915275 653.1666855158957 437.6242992105328 679.0000195659296 441.69304932341316C704.8333536159636 445.76179943629353 728.0833542609943 392.3642979548731 741.0000212860114 379.383047594731 " transform="rotate(93, 400, 400)"></path><path d="M70.00000228881842 410.6481126550372C82.50000263560909 398.0856123065126 105.00000325983231 342.66061076884273 130.00000395341365 350.348110982119C155.00000464699497 358.0356111953953 165.00000492442751 447.1731136683596 190.00000561800886 447.5481136787633C215.0000063115902 447.923113689167 225.00000658902275 352.71061104766244 250.00000728260406 352.1481110320569C275.00000797618543 351.5856110164513 285.000008253618 436.0356133593691 310.0000089471993 444.8481136038565C335.00000964078066 453.6606138483439 345.00000991821315 397.82311229923 370.0000106117945 394.4481122055965C395.00001130537584 391.07311211196304 405.0000115828084 426.7731131023972 430.0000122763897 428.6481131544158C455.000012969971 430.5231132064344 465.0000132474036 399.13561233564303 490.00001394098496 403.4481124552858C515.0000146345662 407.7606125749286 525.0000149119987 458.16061397318856 550.0000156055801 449.34811372870115C575.0000162991615 440.53561348421374 585.000016576594 363.02311133376475 610.0000172701755 361.14811128174614C635.0000179637568 359.27311122972753 645.0000182411893 436.41061336977276 670.0000189347705 440.34811347901183C695.0000196283519 444.2856135882509 717.5000202525752 392.61061215461825 730.0000205993658 380.04811180609363 " transform="rotate(90, 400, 400)"></path><path d="M81.00000221252448 410.29318446749625C93.08333588108879 398.14943413058916 114.83333648450457 344.571932644175 139.0000038216332 352.003182850342C163.1666711587618 359.4344330565091 172.83333809361326 445.6006854470412 197.0000054307419 445.9631854570981C221.16667276787052 446.32568546715504 230.833339702722 354.28693291370064 255.00000703985063 353.74318289861526C279.16667437697924 353.1994328835299 288.83334131183074 434.8344351483504 313.00000864895935 443.35318538468823C337.16667598608797 451.87193562102607 346.8333429209394 397.89568412354924 371.000010258068 394.6331840330369C395.16667759519663 391.3706839425245 404.8333445300481 425.88068489994424 429.00001186717674 427.6931849502289C453.16667920430535 429.50568500051355 462.8333461391569 399.1644341587485 487.00001347628546 403.3331842744032C511.1666808134141 407.5019343900579 520.8333477482655 456.2219357417092 545.0000150853941 447.7031855053714C569.1666824225229 439.18443526903354 578.8333493573742 364.2556831902662 603.000016694503 362.44318313998156C627.1666840316316 360.6306830896969 636.8333509664831 435.1969351584073 661.0000183036116 439.0031852640051C685.1666856407402 442.80943536960285 706.9166862441559 392.8569339837579 719.0000199127203 380.71318364685084 " transform="rotate(87, 400, 400)"></path><path d="M92.00000213623053 409.9382448358635C103.6666691265685 398.2132445105739 124.66666970917683 346.4832430754154 148.00000368985275 353.6582432744732C171.33333767052864 360.83324347353107 180.666671262799 444.028245781631 204.00000524347493 444.37824579134116C227.33333922415085 444.7282458010513 236.66667281642125 355.8632433356471 260.00000679709717 355.33824332108185C283.33334077777306 354.81324330651665 292.66667437004344 433.6332454932399 316.0000083507193 441.85824572142815C339.3333423313953 450.0832459496164 348.66667592366565 397.96824450377676 372.00000990434154 394.81824441638554C395.3333438850174 391.66824432899426 404.6666774772878 424.9882452533995 428.00001145796375 426.7382453019502C451.3333454386397 428.48824535050085 460.6666790309101 399.19324453776227 484.000013011586 403.21824464942887C507.33334699226185 407.2432447610954 516.6666805845323 454.2832460661381 540.0000145652082 446.0582458379498C563.3333485458841 437.83324560976155 572.6666821381544 365.4882436026759 596.0000161188304 363.7382435541252C619.3333500995063 361.9882435055745 628.6666836917767 433.98324550295 652.0000176724526 437.6582456049065C675.3333516531285 441.33324570686295 696.3333522357368 393.1032443688058 708.0000192260748 381.3782440435162 " transform="rotate(84, 400, 400)"></path><path d="M103.00000205993659 409.5833128336253C114.25000237204819 398.2770625199531 134.5000029338491 348.3945611360503 157.00000355807228 355.3133113279989C179.50000418229547 362.23206151994754 188.5000044319848 442.4558137456154 211.00000505620795 442.7933137549787C233.50000568043117 443.13081376434207 242.50000593012047 357.43956138698803 265.0000065543437 356.93331137294297C287.5000071785669 356.42706135889796 296.5000074282562 432.43206346752396 319.0000080524794 440.36331368756265C341.5000086767026 448.2945639076013 350.50000892639184 398.0408125133988 373.00000955061506 395.00331242912864C395.5000101748383 391.96581234485853 404.5000104245276 424.0958132362492 427.00001104875076 425.783313283066C449.500011672974 427.47081332988273 458.5000119226633 399.2220625461705 481.00001254688647 403.103312653849C503.50001317110963 406.9845627615275 512.5000134207988 452.34456401996147 535.0000140450221 444.41331379992283C557.5000146692455 436.48206357988414 566.5000149189347 366.7208116444801 589.0000155431579 365.0333115976633C611.5000161673811 363.3458115508466 620.5000164170704 432.7695634768873 643.0000170412935 436.31331357520247C665.5000176655168 439.8570636735176 685.7500182273176 393.3495623832482 697.0000185394292 382.0433120695761 " transform="rotate(81, 400, 400)"></path><path d="M114.00000198364263 409.2283693872953C124.83333561752788 398.34086908524057 144.33333615852135 350.30586775259343 166.0000034262918 356.96836793743284C187.6666706940623 363.63086812227226 196.3333376011705 440.88337026550795 218.000004868941 441.2083702745245C239.6666721367115 441.5333702835411 248.3333390438197 359.01586799423717 270.0000063115902 358.52836798071235C291.6666735793607 358.04086796718747 300.33334048646896 431.23086999771624 322.0000077542394 438.8683702096053C343.6666750220099 446.50587042149436 352.3333419291181 398.113369078929 374.0000091968886 395.18836899778C395.6666764646591 392.26336891663095 404.3333433717673 423.2033697750072 426.0000106395378 424.82836982009C447.66667790730827 426.4533698651728 456.3333448144165 399.250869110487 478.00001208218697 402.9883692141774C499.66667934995746 406.72586931786776 508.33334625706556 450.4058705296931 530.0000135248362 442.768370317804C551.6666807926067 435.13087010591494 560.3333476997147 367.9533682421925 582.0000149674854 366.3283681971097C603.6666822352558 364.7033681520269 612.3333491423641 431.5558700067328 634.0000164101345 434.9683701014066C655.666683677905 438.3808701960805 675.1666842188985 393.5958689535989 686.0000178527837 382.70836865154416 " transform="rotate(78, 400, 400)"></path><path d="M125.00000190734869 408.8734411997543C135.41666886300757 398.40469090931714 154.1666693831936 352.2171896279256 175.00000329451137 358.62343980565583C195.83333720582914 365.02968998338605 204.16667077035626 439.3109420441896 225.00000468167406 439.62344205285933C245.83333859299182 439.9359420615291 254.16667215751897 360.59218986027537 275.00000606883674 360.1234398472707C295.8333399801545 359.65468983426604 304.16667354468166 430.0296917866975 325.0000074559994 437.373441990437C345.8333413673172 444.71719219417656 354.16667493184434 398.1859409032483 375.00000884316205 395.37344082522037C395.8333427544799 392.5609407471925 404.166676319007 422.31094157255427 425.0000102303248 423.8734416159031C445.83334414164256 425.43594165925197 454.1666777061697 399.27969093359246 475.0000116174875 402.8734410332948C495.83334552880524 406.46719113299713 504.1666790933323 448.4671922982138 525.0000130046501 441.1234420944742C545.8333469159679 433.77969189073474 554.166680480495 369.18594009869395 575.0000143918128 367.6234400553451C595.8333483031306 366.06094001199625 604.1666818676579 430.3421917953673 625.0000157789755 433.62344188639986C645.8333496902933 436.9046919774324 664.5833502104794 393.84219078273856 675.0000171661382 383.37344049230137 " transform="rotate(75, 400, 400)"></path><path d="M136.00000183105476 408.5184977534243C146.00000210848728 398.4684974746046 164.00000260786584 354.12849624446875 184.00000316273093 360.27849641508976C204.00000371759597 366.4284965857108 212.000003939542 437.7384985640822 232.00000449440708 438.03849857240516C252.00000504927215 438.3384985807281 260.0000052712182 362.1684964675245 280.0000058260833 361.71849645504005C300.0000063809483 361.26849644255554 308.00000660289436 428.8284983168898 328.00000715775946 435.8784985124797C348.00000771262455 442.92849870806964 356.00000793457053 398.2584974687785 376.0000084894356 395.55849739387173C396.00000904430067 392.85849731896496 404.0000092662467 421.41849811131226 424.0000098211118 422.91849815292716C444.0000103759769 424.41849819454205 452.0000105979229 399.30849749790895 472.000011152788 402.75849759362313C492.000011707653 406.2084976893374 500.00001192959905 446.52849880794537 520.0000124844642 439.47849861235545C540.0000130393292 432.4284984167655 548.0000132612753 370.41849669640635 568.0000138161404 368.91849665479145C588.0000143710055 367.41849661317656 596.0000145929514 429.1284983252128 616.0000151478165 432.278498412604C636.0000157026815 435.42849849999527 654.00001620206 394.08849735308917 664.0000164794926 384.03849707426946 " transform="rotate(72, 400, 400)"></path><path d="M146.9999864959717 408.16355812179154C156.5833200951779 398.53230785458936 173.83332057374906 356.03980667570914 192.9999877721614 361.93355683922096C212.16665497057375 367.8273070027327 219.8333218499387 436.166058898672 238.99998904835104 436.4535589066482C258.1666562467634 436.7410589146244 265.8333231261284 363.7448068894709 284.9999903245407 363.31355687750664C304.1666575229531 362.8823068655423 311.83332440231806 427.6273086617793 330.9999916007304 434.38355884921964C350.1666587991428 441.13980903666004 357.83332567850766 398.331057849006 376.99999287692003 395.74355777722036C396.1666600753324 393.15605770543465 403.8333269546974 420.5260584647675 422.99999415310975 421.96355850464846C442.1666613515221 423.4010585445294 449.83332823088705 399.33730787692264 468.9999954292994 402.6435579686488C488.16666262771173 405.94980806037495 495.83332950707666 444.5898091323742 514.9999967054891 437.8335589449339C534.1666639039015 431.07730875749354 541.8333307832664 371.651057108816 560.9999979816788 370.2135570689351C580.1666651800912 368.77605702905413 587.8333320594561 427.9148086697555 606.9999992578685 430.9335587535054C626.1666664562807 433.9523088372554 643.4166669348518 394.33480773813704 653.000000534058 384.7035574709348 " transform="rotate(69, 400, 400)"></path><path d="M157.99998641967778 407.80862230485604C167.1666533406576 398.59612204927134 183.6666537984213 357.9511209216468 201.99998764038094 363.5886210780494C220.33332148234058 369.22612123445197 227.66665501912445 434.5936230479591 245.9999888610841 434.8686230555885C264.33332270304373 435.1436230632179 271.6666562398276 365.3211211261146 289.99999008178725 364.9086211146705C308.3333239237469 364.4961211032264 315.6666574605308 426.4261228213661 333.99999130249046 432.8886230006569C352.3333251444501 439.35112317994765 359.6666586812339 398.4036220439308 377.99999252319355 395.9286219752662C396.3333263651532 393.45362190660165 403.6666599019371 419.63362263292004 421.99999374389677 421.00862267106703C440.3333275858564 422.38362270921397 447.6666611226403 399.36612207063365 465.9999949645999 402.52862215837166C484.3333288065595 405.6911222461097 491.6666623433434 442.65112327150035 509.9999961853031 436.1886230922096C528.3333300272627 429.7261229129188 535.6666635640465 372.88362133592295 553.9999974060063 371.50862129777596C572.3333312479659 370.13362125962897 579.6666647847499 426.7011228289955 597.9999986267094 429.5886229091041C616.3333324686689 432.47612298921274 632.8333329264326 394.5811219378822 641.9999998474125 385.36862168229743 " transform="rotate(66, 400, 400)"></path><path d="M168.99998634338385 407.4536826732233C177.7499865861373 398.65993242925606 193.49998702309355 359.8624313528872 210.9999875086005 365.2436815021806C228.4999879941074 370.62493165147396 235.49998818831023 433.02118338254894 252.99998867381714 433.28368338983154C270.49998915932406 433.54618339711413 277.49998935352687 366.897431548061 294.9999898390338 366.5036815371371C312.4999903245407 366.1099315262132 319.4999905187435 425.2249331662556 336.99999100425043 431.3936833373968C354.49999148975735 437.562433508538 361.49999168396016 398.47618242415825 378.9999921694671 396.1136823586148C396.49999265497405 393.7511822930714 403.4999928491768 418.7411829863753 420.9999933346837 420.0536830227883C438.4999938201907 421.3661830592013 445.4999940143935 399.39493244964734 462.9999944999004 402.4136825333973C480.4999949854073 405.43243261714724 487.4999951796101 440.71243359592927 504.99999566511707 434.543683424788C522.4999961506239 428.3749332536469 529.4999963448267 374.1161817483326 546.9999968303338 372.8036817119196C564.4999973158407 371.49118167550654 571.4999975100434 425.4874331735382 588.9999979955503 428.2436832500056C606.4999984810572 430.9999333264729 622.2499989180135 394.82743232293006 630.999999160767 386.03368207896284 " transform="rotate(63, 400, 400)"></path><path d="M179.9999862670899 407.0987430415906C188.33331983161702 398.72374280924083 203.3333202477658 361.7737417841276 219.99998737682003 366.8987419263118C236.66665450587425 372.02374206849595 243.33332135749595 431.44874371713877 259.9999884865502 431.6987437240746C276.6666556156044 431.9487437310104 283.33332246722614 368.4737419700074 299.99998959628033 368.0987419596037C316.6666567253345 367.72374194919996 323.3333235769563 424.02374351114514 339.9999907060105 429.8987436741367C356.6666578350647 435.77374383712834 363.3333246866864 398.5487428043857 379.9999918157406 396.2987427419634C396.6666589447948 394.0487426795411 403.33332579641655 417.84874333983055 419.9999929254708 419.0987433745096C436.666660054525 420.34874340918867 443.3333269061467 399.4237428286611 459.9999940352009 402.2987429084229C476.6666611642551 405.1737429881848 483.33332801587676 438.77374392035813 499.99999514493106 432.8987437573665C516.6666622739854 427.0237435943749 523.333329125607 375.3487421607423 539.9999962546613 374.0987421260632C556.6666633837156 372.8487420913841 563.3333302353371 424.27374351808095 579.9999973643913 426.898743590907C596.6666644934455 429.523743663733 611.6666649095944 395.07374270797794 619.9999984741214 386.6987424756282 " transform="rotate(60, 400, 400)"></path><path d="M190.99998619079594 406.7438148540496C198.9166530770967 398.78756463331734 213.16665347243807 363.6850636594598 228.99998724503956 368.55381379453473C244.83332101764108 373.42256392960974 251.1666545266817 429.87631549582045 266.99998829928325 430.11381550240947C282.8333220718847 430.3513155089985 289.16665558092535 370.0500638360456 304.99998935352687 369.69381382616206C320.83332312612833 369.33756381627853 327.166656635169 422.8225653001265 342.9999904077705 428.4038154549685C358.833324180372 433.98506560981053 365.1666576894126 398.621314628705 380.9999914620141 396.4838145694038C396.8333252346156 394.3463145101026 403.1666587436563 416.9563151373776 418.99999251625775 418.1438151703227C434.83332628885927 419.3313152032678 441.1666597978999 399.45256465176664 456.99999357050143 402.1838147275404C472.8333273431029 404.9150648033141 479.1666608521435 436.8350656888788 494.99999462474506 431.25381553403673C510.8333283973466 425.67256537919474 517.1666619063872 376.5813140172437 532.9999956789886 375.3938139842986C548.8333294515903 374.2063139513535 555.1666629606309 423.0600653067155 570.9999967332324 425.55381537590023C586.8333305058338 428.04756544508496 601.0833309011753 395.3200645371176 608.9999977874759 387.36381431638534 " transform="rotate(57, 400, 400)"></path><path d="M201.999986114502 406.38886950037096C209.49998632257638 398.8513692912562 222.99998669711033 365.5963683686543 237.99998711325912 370.20886849662C252.99998752940792 374.82136862458583 258.99998769586745 428.3038701083644 273.99998811201624 428.5288701146066C288.9999885281651 428.75387012084883 294.99998869462456 371.6263685359461 309.9999891107734 371.28886852658275C324.9999895269222 370.9513685172194 330.99998969338174 421.6213699229701 345.99999010953053 426.9088700696625C360.9999905256793 432.196370216355 366.9999906921388 398.69386928688664 381.99999110828765 396.66886923070655C396.99999152443644 394.64386917452646 402.99999169089597 416.06386976878696 417.99999210704476 417.1888697999981C432.99999252319355 418.3138698312093 438.99999268965314 399.48136930873443 453.99999310580193 402.0688693805201C468.9999935219507 404.6563694523058 474.9999936884102 434.89637029126175 489.99999410455905 429.6088701445693C504.9999945207079 424.32136999787684 510.9999946871674 377.81386870760747 525.9999951033162 376.68886867639634C540.9999955194651 375.56386864518515 546.9999956859245 421.8463699292123 561.9999961020733 424.20886999475573C576.9999965182221 426.57137006029916 590.499996892756 395.5663692001196 597.9999971008303 388.02886899100486 " transform="rotate(54, 400, 400)"></path><path d="M212.99998603820805 406.03393177608683C220.08331956805608 398.91518157858957 232.8333199217826 367.5076807072433 246.99998698147868 371.86393082809985C261.16665404117475 376.2201809489564 266.8333208650532 426.73143235030284 280.9999879247493 426.9439323561983C295.16665498444536 427.1564323620937 300.83332180832383 373.2026808652412 314.99998886801995 372.88393085639797C329.166655927716 372.5651808475548 334.83332275159444 420.4201821752082 348.99998981129056 425.4139323137511C363.1666568709866 430.40768245229395 368.83332369486504 398.76643157446273 382.99999075456117 396.85393152140375C397.16665781425723 394.94143146834483 402.8333246381357 415.17143202959085 416.9999916978318 416.233932059068C431.1666587575279 417.29643208854526 436.8333255814063 399.5101815950968 450.99999264110244 401.9539316628944C465.1666597007985 404.39768173069194 470.8333265246769 432.95768252303924 484.99999358437304 427.9639323844964C499.16666064406917 422.97018224595354 504.8333274679476 379.04643102736577 518.9999945276437 377.9839309978886C533.1666615873398 376.92143096841136 538.8333284112182 420.6326821811037 552.9999954709143 422.8639322430058C567.1666625306103 425.09518230490795 579.9166628843368 395.8126814925161 586.9999964141849 388.69393129501884 " transform="rotate(51, 400, 400)"></path><path d="M223.9999859619141 405.67899786649997C230.6666528135358 398.9789976806202 242.66665314645485 369.4189968605296 255.99998684969822 373.51899697427694C269.3333205529416 377.6189970880243 274.66665403423895 425.15899840693857 287.99998773748234 425.3589984124872C301.3333214407257 425.55899841803586 306.6666549220231 374.7789970092335 319.99998862526644 374.47899700091045C333.33332232850984 374.1789969925875 338.6666558098072 419.21899824214364 351.99998951305054 423.9189983725369C365.33332321629393 428.61899850293025 370.6666566975913 398.83899767673614 383.9999904008347 397.0389976267983C397.3333241040781 395.2389975768604 402.66665758537545 414.278998105092 415.99999128861884 415.2789981328352C429.3333249918621 416.2789981605785 434.66665847315954 399.5389976961564 447.9999921764029 401.8389977599659C461.3333258796463 404.1389978237754 466.6666593609436 431.01899856951405 479.99999306418704 426.3189984391207C493.33332676743044 421.61899830872744 498.6666602487278 380.27899716182134 511.99999395197113 379.2789971340781C525.3333276552146 378.2789971063348 530.666661136512 419.4189982476923 543.9999948397553 421.5189983059531C557.3333285429986 423.61899836421395 569.3333288759177 396.0589975996099 575.9999957275394 389.3589974137301 " transform="rotate(48, 400, 400)"></path><path d="M234.99998588562016 405.3240601422159C241.2499860590155 399.0428099679536 252.49998637112708 371.33030919911863 264.99998671791775 375.17405930575677C277.4999870647084 379.0178094123949 282.49998720342467 423.586560648877 294.99998755021534 423.7740606540789C307.499987897006 423.96156065928074 312.4999880357223 376.3553093385285 324.999988382513 376.07405933072573C337.49998872930365 375.7928093229229 342.49998886801995 418.0178104943818 354.9999892148106 422.4240606166255C367.4999895616013 426.83031073886923 372.49998970031754 398.91155996431223 384.9999900471082 397.22405991749554C397.4999903938989 395.5365598706788 402.49999053261513 413.3865603658959 414.9999908794058 414.32406039190516C427.49999122619647 415.26156041791444 432.4999913649127 399.5678099825188 444.9999917117034 401.72406004234017C457.49999205849406 403.88031010216156 462.4999921972103 429.08031080129155 474.999992544001 424.67406067904784C487.4999928907917 420.26781055680414 492.49999302950795 381.51155948157964 504.9999933762987 380.57405945557036C517.4999937230893 379.63655942956103 522.4999938618056 418.2053104995837 534.9999942085963 420.1740605542032C547.4999945553868 422.14281060882274 558.7499948674986 396.3053098920064 564.9999950408939 390.0240597177441 " transform="rotate(45, 400, 400)"></path><path d="M245.9999858093262 404.9691243252804C251.83331930449518 399.10662416263557 262.33331959579937 373.2416234450563 273.9999865861373 376.82912354458523C285.66665357647526 380.41662364411417 290.33332037261044 422.0141247981642 301.9999873629484 422.18912480301924C313.6666543532864 422.3641248078743 318.3333211494216 377.9316235751722 329.9999881397595 377.6691235678896C341.66665513009747 377.40662356060693 346.33332192623266 416.8166246539686 357.9999889165706 420.9291247680627C369.66665590690855 425.04162488215684 374.3333227030438 398.984124159237 385.99998969338174 397.4091241155414C397.6666566837197 395.83412407184574 402.3333234798548 412.49412453404835 413.9999904701928 413.36912455832373C425.6666574605308 414.24412458259906 430.33332425666595 399.59662417622974 441.99999124700395 401.60912423206304C453.66665823734184 403.62162428789634 458.3333250334771 427.14162494041767 469.999992023815 423.02912482632354C481.66665901415297 418.9166247122294 486.33332581028816 382.7441237086866 497.99999280062616 381.86912368441125C509.6666597909641 380.99412366013587 514.3333265870992 416.99162465882364 525.9999935774372 418.8291247098019C537.6666605677751 420.6666247607801 548.1666608590793 396.55162409175153 553.9999943542483 390.6891239291067 " transform="rotate(42, 400, 400)"></path><path d="M256.99998573303225 404.61419041569354C262.41665254997486 399.1704402646662 272.1666528204716 375.1529395983426 282.9999864543569 378.4841896907623C293.8333200882421 381.815439783182 298.1666535417962 420.4416908547999 308.99998717568144 420.6041908593082C319.83332080956666 420.76669086381645 324.1666542631208 379.5079397191645 334.999987897006 379.26418971240207C345.8333215308913 379.02043970563966 350.1666549844454 415.615440720904 360.99998861833063 419.4341908268485C371.8333222522159 423.2529409327931 376.16665570577 399.0566902615104 386.99998933965526 397.5941902209359C397.8333229735405 396.1316901803614 402.1666564270946 411.6016906095495 412.9999900609798 412.41419063209094C423.83332369486504 413.2266906546323 428.1666571484192 399.6254402772894 438.9999907823044 401.4941903291346C449.83332441618967 403.3629403809798 454.16665786974374 425.20294098689243 464.999991503629 421.3841908809479C475.8333251375143 417.56544077500337 480.1666585910683 383.97668984314214 490.99999222495364 383.16418982060077C501.83332585883886 382.35168979805934 506.166659312393 415.7779407254123 516.9999929462782 417.48419077274923C527.8333265801634 419.1904408200861 537.5833268506601 396.7979401988453 542.9999936676028 391.354190047818 " transform="rotate(39, 400, 400)"></path><path d="M267.9999856567383 404.25924887671215C272.99998579545456 399.2342487373023 281.9999860451438 377.06424812223435 291.99998632257643 380.1392482075449C301.9999866000089 383.21424829285536 305.99998671098194 418.8692492820411 315.9999869884145 419.0192492862026C325.99998726584704 419.16924929036406 329.99998737682006 381.08424823376225 339.99998765425255 380.85924822752C349.9999879316851 380.6342482212778 353.9999880426581 414.4142491584449 363.99998832009067 417.93924925623986C373.9999885975232 421.4642493540348 377.9999887084962 399.12924873438925 387.9999889859287 397.77924869693584C397.9999892633613 396.4292486594825 401.9999893743343 410.70924905565613 411.99998965176684 411.45924907646355C421.9999899291994 412.209249097271 425.9999900401724 399.6542487489545 435.9999903176049 401.37924879681157C445.99999059503745 403.1042488446687 449.99999070601046 423.2642494039727 459.999990983443 419.7392493061777C469.99999126087556 416.21424920838274 473.9999913718486 385.2092483482032 483.9999916492811 384.4592483273957C493.9999919267137 383.7092483065883 497.99999203768664 414.56424916260636 507.9999923151192 416.139249206302C517.9999925925517 417.71424924999764 526.999992842241 397.04424867654456 531.9999929809572 392.01924853713473 " transform="rotate(36, 400, 400)"></path><path d="M279.0000008392334 403.90431305977665C283.58333429972333 399.2980629319843 291.8333345286052 378.97556236817206 301.000001449585 381.79431244637334C310.1666683705648 384.6130625245746 313.8333351389567 417.2968134313282 323.0000020599366 417.4343134351429C332.16666898091637 417.5718134389576 335.83333574930833 382.6605624704059 345.00000267028815 382.4543124646839C354.166669591268 382.24806245896184 357.83333635965994 413.2130633180317 367.00000328063976 416.44431340767704C376.1666702016196 419.67556349732246 379.8333369700115 399.20181292931403 389.0000038909913 397.96431289498173C398.16667081197113 396.7268128606495 401.8333375803631 409.81681322380865 411.0000045013429 410.5043132428821C420.16667142232274 411.19181326195564 423.8333381907147 399.68306294266546 433.00000511169446 401.2643129865345C442.1666720326743 402.84556303040347 445.83333880106625 421.32556354309884 455.00000572204607 418.0943134534534C464.1666726430259 414.86306336380807 467.8333394114178 386.4418125753101 477.0000063323977 385.75431255623664C486.1666732533775 385.0668125371631 489.83334002176946 413.3505633218464 499.0000069427492 414.7943133619007C508.166673863729 416.238063401955 516.4166740926108 397.2905628762897 521.0000075531008 392.68431274849735 " transform="rotate(33, 400, 400)"></path><path d="M290.00000076293946 403.54937724284116C294.16666754520304 399.3618771266663 301.66666775327747 380.8868766141097 310.00000131780456 383.4493766852018C318.33333488233166 386.0118767562939 321.6666683081425 415.7243775806153 330.0000018726696 415.8493775840832C338.33333543719675 415.9743775875511 341.6666688630076 384.2368767070496 350.0000024275347 384.04937670184773C358.3333359920618 383.8618766966459 361.66666941787264 412.01187747761844 370.0000029823998 414.9493775591143C378.3333365469269 417.88687764061007 381.66666997273774 399.27437712423875 390.00000353726483 398.1493770930276C398.3333371017919 397.02437706181644 401.66667052760283 408.9243773919612 410.0000040921299 409.5493774093007C418.333337656657 410.17437742664026 421.6666710824679 399.7118771363764 430.00000464699497 401.14937717625736C438.3333382115221 402.5868772161383 441.6666716373329 419.38687768222496 450.00000520186006 416.4493776007291C458.3333387663872 413.51187751923334 461.666672192198 387.67437680241704 470.00000575672516 387.04937678507747C478.3333393212523 386.42437676773795 481.6666727470631 412.13687748108634 490.0000063115902 413.4493775174994C498.3333398761173 414.7618775539124 505.8333400841917 397.5368770760349 510.00000686645524 393.34937695986 " transform="rotate(30, 400, 400)"></path><path d="M301.00000068664554 403.1944376112084C304.75000079068275 399.42568750665106 311.5000009779497 382.7981870453501 319.00000118602406 385.104437109333C326.5000013940985 387.41068717331586 329.5000014773283 414.1519379152051 337.00000168540265 414.2644379183262C344.5000018934771 414.37693792144734 347.5000019767068 385.813187128996 355.00000218478124 385.6444371243143C362.50000239285566 385.47568711963265 365.5000024760854 410.810687822508 373.00000268415977 413.4544378958542C380.5000028922342 416.0981879692004 383.50000297546393 399.34693750446627 391.00000318353835 398.3344374763762C398.5000033916127 397.3219374482862 401.5000034748425 408.0319377454164 409.00000368291694 408.594437761022C416.5000038909913 409.15693777662756 419.5000039742211 399.74068751539016 427.00000418229547 401.034437551283C434.5000043903699 402.3281875871758 437.50000447359963 417.4481880066538 445.00000468167406 414.8044379333076C452.5000048897485 412.1606878599614 455.5000049729782 388.9069372148267 463.00000518105264 388.3444371992211C470.50000538912707 387.7819371836155 473.5000054723568 410.9231878256291 481.0000056804312 412.10443785840084C488.5000058885056 413.28568789117253 495.25000607577255 397.7831874610828 499.0000061798097 394.0144373565254 " transform="rotate(27, 400, 400)"></path><path d="M312.00000061035155 402.83950084059865C315.33333403616246 399.4895007476587 321.3333342026219 384.70950033761346 328.0000010542436 386.75950039448713C334.6666679058653 388.8095004513608 337.333334646514 412.57950111081794 344.0000014981357 412.67950111359227C350.6666683497574 412.7795011163666 353.3333350904061 387.38950041196534 360.0000019420278 387.23950040780386C366.6666687936495 387.0895004036424 369.33333553429816 409.6095010284205 376.0000023859198 411.9595010936171C382.6666692375415 414.30950115881376 385.3333359781902 399.41950074571673 392.0000028298119 398.51950072074777C398.6666696814336 397.61950069577887 401.33333642208225 407.13950095989463 408.00000327370395 407.63950097376625C414.6666701253256 408.13950098763786 417.3333368659743 399.76950075542686 424.000003717596 400.9195007873316C430.6666705692177 402.06950081923634 433.33333730986635 415.50950119210563 440.00000416148805 413.159501126909C446.66667101310975 410.80950106171235 449.3333377537584 390.13950048825933 456.0000046053801 389.63950047438766C462.6666714570018 389.13950046051605 465.3333381976505 409.7095010311948 472.0000050492722 410.7595010603252C478.66667190089385 411.80950108945564 484.6666720673534 398.0295007071536 488.0000054931642 394.6795006142137 " transform="rotate(24, 400, 400)"></path><path d="M323.0000005340576 402.4845631163145C325.9166672816421 399.55331303499213 331.1666674272942 386.6208126762025 337.0000009224632 388.4145627259669C342.83333441763216 390.2083127757314 345.1666678156997 411.0070633527564 351.0000013108687 411.09456335518394C356.8333348060377 411.18206335761147 359.16666820410535 388.9658127412604 365.0000016992743 388.8345627376191C370.8333351944433 388.7033127339778 373.16666859251086 408.4083132806586 379.00000208767983 410.46456333770567C384.8333355828488 412.52081339475274 387.1666689809164 399.4920630332928 393.0000024760854 398.70456301144503C398.83333597125437 397.9170629895972 401.16666936932194 406.2470632206985 407.00000286449097 406.6845632328362C412.83333635965994 407.12206324497384 415.1666697577275 399.7983130417892 421.0000032528965 400.80456306970586C426.83333674806545 401.8108130976225 429.1666701461331 413.5708134238832 435.00000364130204 411.5145633668361C440.833337136471 409.45831330978905 443.16667053453864 391.37206280801763 449.0000040297076 390.9345627958799C454.8333375248766 390.49706278374225 457.16667092294415 408.49581328308614 463.0000044181131 409.4145633085752C468.8333379132821 410.33331333406437 474.0833380589342 398.2758129995501 477.0000048065187 395.34456291822767 " transform="rotate(21, 400, 400)"></path><path d="M334.0000004577637 402.1296263457047C336.5000005271218 399.6171262759998 341.00000065196645 388.53212596846583 346.00000079068275 390.06962601112104C351.000000929399 391.6071260537763 353.0000009848855 409.4346265483692 358.0000011236018 409.5096265504499C363.00000126231805 409.58462655253066 365.00000131780456 390.5421260242298 370.0000014565208 390.4296260211086C375.0000015952371 390.3171260179875 377.00000165072356 407.2071264865711 382.00000178943986 408.9696265354686C387.00000192815617 410.73212658436603 389.0000019836426 399.56462627454323 394.00000212235886 398.88962625581655C399.00000226107517 398.2146262370899 401.0000023165617 405.35462643517667 406.0000024552779 405.72962644558044C411.0000025939942 406.10462645598415 413.00000264948073 399.8271262818259 418.000002788197 400.6896263057544C423.0000029269132 401.552126329683 425.0000029823998 411.632126609335 430.00000312111604 409.8696265604375C435.0000032598323 408.10712651154 437.00000331531885 392.6046260814502 442.0000034540351 392.2296260710465C447.00000359275134 391.8546260606428 449.00000364823785 407.28212648865184 454.00000378695415 408.06962651049963C459.0000039256704 408.8571265323475 463.50000405051503 398.52212624562094 466.00000411987315 396.00962617591597 " transform="rotate(18, 400, 400)"></path><path d="M344.99999656677244 401.77468671407195C347.08332995790425 399.6809366559845 350.83333006194147 390.44343639970623 354.99999684420504 391.72468643525224C359.16666362646856 393.0059364707983 360.833330339374 407.862186882959 364.99999712163753 407.92468688469296C369.1666639039011 407.9871868864269 370.8333306168065 392.11843644617613 374.9999973990701 392.0246864435752C379.16666418133366 391.9309364409743 380.83333089423905 406.0059368314606 384.99999767650263 407.4746868722085C389.16666445876615 408.9434369129564 390.8333311716716 399.63718665477074 394.9999979539351 399.0746866391652C399.1666647361987 398.5121866235596 400.83333144910415 404.4621867886319 404.9999982313677 404.77468679730174C409.16666501363125 405.0871868059715 410.8333317265367 399.8559366608396 414.9999985088002 400.5746866807801C419.1666652910638 401.2934367007205 420.8333320039692 409.69343693376385 424.99999878623277 408.2246868930159C429.16666556849634 406.75593685226806 430.83333228140174 393.83718649385986 434.9999990636653 393.5246864851901C439.1666658459289 393.21218647652034 440.8333325588343 406.06843683319454 444.9999993410978 406.7246868514011C449.1666661233614 407.3809368696076 452.9166662273986 398.7684366306688 454.99999961853035 396.6746865725814 " transform="rotate(15, 400, 400)"></path><path d="M355.9999964904785 401.41975089713645C357.66666320338396 399.7447508506665 360.6666632866137 392.3547506456439 363.99999671242455 393.3797506740807C367.3333301382354 394.40475070251756 368.66666350855974 406.2897510322461 371.9999969343706 406.33975103363326C375.33333036018144 406.3897510350204 376.6666637305058 393.69475068281986 379.9999971563166 393.6197506807391C383.3333305821275 393.5447506786584 384.6666639524518 404.8047509910474 387.9999973782626 405.9797510236457C391.3333308040735 407.15475105624404 392.66666417439785 399.7097508496955 395.99999760020864 399.2597508372111C399.33333102601955 398.80975082472656 400.6666643963439 403.56975095678445 403.9999978221547 403.81975096372025C407.33333124796553 404.0697509706561 408.6666646182899 399.8847508545506 411.9999980441007 400.45975087050294C415.33333146991157 401.0347508864553 416.6666648402359 407.75475107289 419.99999826604676 406.5797510402917C423.3333316918576 405.40475100769333 424.66666506218195 395.0697507209668 427.9999984879928 394.819750714031C431.33333191380365 394.5697507070952 432.666665284128 404.85475099243456 435.99999870993884 405.37975100699975C439.33333213574963 405.90475102156495 442.3333322189794 399.01475083041396 443.9999989318849 397.339750783944 " transform="rotate(12, 400, 400)"></path><path d="M366.9999964141846 401.0648131728524C368.2499964488636 399.8085631379999 370.499996511286 394.2660629842329 372.9999965806441 395.0348130055605C375.49999665000223 395.8035630268882 376.49999667774546 404.71731327418456 378.99999674710364 404.75481327522493C381.49999681646176 404.7923132762653 382.49999684420504 395.2710630121149 384.9999969135631 395.21481301055434C387.4999969829213 395.1585630089938 388.4999970106645 403.6035632432855 390.9999970800227 404.4848132677343C393.4999971493808 405.366063292183 394.49999717712404 399.7823131372716 396.99999724648217 399.4448131279083C399.49999731584035 399.10731311854494 400.4999973435836 402.67731321758833 402.9999974129417 402.8648132227902C405.4999974822998 403.05231322799204 406.4999975100431 399.9135631409129 408.9999975794012 400.34481315287724C411.49999764875935 400.7760631648415 412.49999767650263 405.81606330466747 414.99999774586075 404.93481328021875C417.4999978152189 404.05356325577 418.49999784296216 396.3023130407251 420.9999979123203 396.11481303552324C423.4999979816784 395.9273130303214 424.4999980094217 403.6410632443259 426.9999980787798 404.0348132552498C429.49999814813793 404.42856326617374 431.74999821056025 399.26106312281047 432.99999824523934 398.004813087958 " transform="rotate(9, 400, 400)"></path><path d="M378.0000001525879 400.70987544856825C378.8333335090406 399.87237542533325 380.3333335506555 396.17737532282194 382.0000002635609 396.68987533704035C383.66666697646633 397.20237535125875 384.3333336616285 403.1448755161231 386.0000003745339 403.16987551681666C387.66666708743935 403.19487551751024 388.3333337726015 396.84737534140993 390.0000004855069 396.80987534036956C391.66666719841237 396.7723753393292 392.33333388357454 402.4023754955237 394.00000059647994 402.98987551182285C395.6666673093854 403.57737552812205 396.33333399454756 399.85487542484776 398.00000070745295 399.62987541860554C399.6666674203584 399.4048754123633 400.3333341055206 401.7848754783922 402.000000818426 401.9098754818601C403.6666675313314 402.03487548532803 404.33333421649354 399.9423754272753 406.000000929399 400.2298754352515C407.66666764230445 400.51737544322765 408.33333432746656 403.877375536445 410.000001040372 403.2898755201458C411.66666775327747 402.70237550384667 412.3333344384396 397.5348753604834 414.00000115134503 397.4098753570155C415.6666678642505 397.2848753535476 416.3333345494126 402.4273754962173 418.00000126231805 402.6898755034999C419.66666797522345 402.9523755107825 421.16666801683834 399.507375415207 422.00000137329107 398.669875391972 " transform="rotate(6, 400, 400)"></path><path d="M389.00000007629393 400.3549377242841C389.4166667545203 399.93618771266665 390.1666667753277 398.088687661411 391.00000013178044 398.3449376685202C391.83333348823317 398.6011876756294 392.1666668308143 401.57243775806154 393.00000018726695 401.58493775840833C393.8333335437197 401.5974377587551 394.16666688630073 398.42368767070496 395.00000024275346 398.4049376701848C395.8333335992062 398.3861876696646 396.1666669417873 401.2011877477619 397.00000029823997 401.49493775591145C397.8333336546927 401.788687764061 398.16666699727375 399.92743771242385 399.0000003537265 399.81493770930274C399.8333337101792 399.7024377061816 400.16666705276026 400.8924377391961 401.000000409213 400.95493774093006C401.8333337656657 401.017437742664 402.16666710824677 399.9711877136376 403.0000004646995 400.1149377176257C403.8333338211522 400.25868772161385 404.1666671637333 401.9386877682225 405.000000520186 401.64493776007293C405.83333387663873 401.35118775192336 406.1666672192198 398.7674376802417 407.0000005756725 398.70493767850775C407.83333393212524 398.6424376767738 408.1666672747063 401.21368774810867 409.000000631159 401.34493775174997C409.8333339876117 401.47618775539127 410.5833340084192 399.7536877076035 411.00000068664554 399.334937695986 " transform="rotate(3, 400, 400)"></path></g></svg>