<svg id="visual" viewBox="0 0 900 600" width="900" height="600" xmlns="http://www.w3.org/2000/svg" xmlns:xlink="http://www.w3.org/1999/xlink" version="1.1"><rect x="0" y="0" width="900" height="600" fill="#001122"></rect><path d="M538 600L555 580C572 560 606 520 636.2 480C666.3 440 692.7 400 694.5 360C696.3 320 673.7 280 651.5 240C629.3 200 607.7 160 616 120C624.3 80 662.7 40 681.8 20L701 0L900 0L900 20C900 40 900 80 900 120C900 160 900 200 900 240C900 280 900 320 900 360C900 400 900 440 900 480C900 520 900 560 900 580L900 600Z" fill="#ea4435" stroke-linecap="round" stroke-linejoin="miter"></path></svg>