<svg id="visual" viewBox="0 0 900 600" width="900" height="600" xmlns="http://www.w3.org/2000/svg" xmlns:xlink="http://www.w3.org/1999/xlink" version="1.1"><rect x="0" y="0" width="900" height="600" fill="#001122"></rect><path d="M282 600L308.8 580C335.7 560 389.3 520 434 480C478.7 440 514.3 400 504.5 360C494.7 320 439.3 280 441.3 240C443.3 200 502.7 160 541.8 120C581 80 600 40 609.5 20L619 0L900 0L900 20C900 40 900 80 900 120C900 160 900 200 900 240C900 280 900 320 900 360C900 400 900 440 900 480C900 520 900 560 900 580L900 600Z" fill="#ea4435" stroke-linecap="round" stroke-linejoin="miter"></path></svg>