<svg id="visual" viewBox="0 0 900 600" width="900" height="600" xmlns="http://www.w3.org/2000/svg" xmlns:xlink="http://www.w3.org/1999/xlink" version="1.1"><rect x="0" y="0" width="900" height="600" fill="#ea4435"></rect><path d="M118 0L118.8 14.3C119.7 28.7 121.3 57.3 131.3 85.8C141.3 114.3 159.7 142.7 156.8 171.2C154 199.7 130 228.3 130.2 257C130.3 285.7 154.7 314.3 151 343C147.3 371.7 115.7 400.3 106.2 428.8C96.7 457.3 109.3 485.7 123.2 514.2C137 542.7 152 571.3 159.5 585.7L167 600L0 600L0 585.7C0 571.3 0 542.7 0 514.2C0 485.7 0 457.3 0 428.8C0 400.3 0 371.7 0 343C0 314.3 0 285.7 0 257C0 228.3 0 199.7 0 171.2C0 142.7 0 114.3 0 85.8C0 57.3 0 28.7 0 14.3L0 0Z" fill="#001122" stroke-linecap="round" stroke-linejoin="miter"></path></svg>
